<svg width="16" height="16" viewBox="0 0 16 16" fill="none" xmlns="http://www.w3.org/2000/svg">
<path d="M6.30302 4.09599H13.682L10.5261 0.979794C10.4184 0.872157 10.358 0.726171 10.358 0.57395C10.358 0.421729 10.4184 0.275742 10.5261 0.168106C10.6337 0.0604694 10.7797 1.13413e-09 10.9319 0C11.0841 -1.13413e-09 11.2301 0.0604694 11.3378 0.168106L15.8787 4.65793L11.3378 9.12505C11.2309 9.23118 11.0862 9.29051 10.9356 9.28997C10.785 9.28944 10.6407 9.2291 10.5346 9.12221C10.4284 9.01533 10.3691 8.87066 10.3697 8.72004C10.3702 8.56941 10.4305 8.42517 10.5374 8.31904L13.6877 5.23122H6.30869C4.94471 5.22366 3.63335 5.7571 2.66196 6.71466C1.69057 7.67221 1.13838 8.97579 1.12638 10.3397C1.13293 11.2851 1.4017 12.2102 1.90276 13.0119C2.40383 13.8136 3.11754 14.4605 3.96445 14.8807C4.10445 14.9514 4.21061 15.0749 4.25958 15.2239C4.28383 15.2977 4.2933 15.3755 4.28746 15.453C4.28162 15.5304 4.26059 15.606 4.22555 15.6753C4.19052 15.7446 4.14217 15.8064 4.08328 15.857C4.02438 15.9077 3.95609 15.9462 3.8823 15.9704C3.73327 16.0194 3.57089 16.0072 3.43089 15.9364C2.17241 15.3014 1.16585 14.2591 0.574986 12.9793C-0.0158815 11.6995 -0.156286 10.2574 0.176614 8.88764C0.509515 7.51788 1.29613 6.30107 2.40848 5.43519C3.52083 4.56931 4.89345 4.08261 6.30302 4.09599Z" fill="white"/>
</svg>
