<svg width="16" height="16" viewBox="0 0 16 16" fill="none" xmlns="http://www.w3.org/2000/svg">
<path d="M9.57564 4.09599H2.19667L5.3526 0.979794C5.46023 0.872157 5.5207 0.726171 5.5207 0.57395C5.5207 0.421729 5.46023 0.275742 5.3526 0.168106C5.24496 0.0604694 5.09898 1.13413e-09 4.94675 0C4.79453 -1.13413e-09 4.64855 0.0604694 4.54091 0.168106L0 4.65793L4.54091 9.12505C4.64779 9.23118 4.79246 9.29051 4.94308 9.28997C5.09371 9.28944 5.23795 9.2291 5.34408 9.12221C5.45021 9.01533 5.50954 8.87066 5.50901 8.72004C5.50847 8.56941 5.44813 8.42517 5.34125 8.31904L2.19099 5.23122H9.56997C10.934 5.22366 12.2453 5.7571 13.2167 6.71466C14.1881 7.67221 14.7403 8.97579 14.7523 10.3397C14.7457 11.2851 14.477 12.2102 13.9759 13.0119C13.4748 13.8136 12.7611 14.4605 11.9142 14.8807C11.7742 14.9514 11.668 15.0749 11.6191 15.2239C11.5948 15.2977 11.5854 15.3755 11.5912 15.453C11.597 15.5304 11.6181 15.606 11.6531 15.6753C11.6881 15.7446 11.7365 15.8064 11.7954 15.857C11.8543 15.9077 11.9226 15.9462 11.9964 15.9704C12.1454 16.0194 12.3078 16.0072 12.4478 15.9364C13.7063 15.3014 14.7128 14.2591 15.3037 12.9793C15.8945 11.6995 16.0349 10.2574 15.702 8.88764C15.3691 7.51788 14.5825 6.30107 13.4702 5.43519C12.3578 4.56931 10.9852 4.08261 9.57564 4.09599Z" fill="white"/>
</svg>
