<svg width="48" height="16" viewBox="0 0 48 16" fill="none" xmlns="http://www.w3.org/2000/svg">
<path d="M24.8291 8.55664H20.7412V11.6191H25.5195V13H19.0117V3.04688H25.4717V4.44141H20.7412V7.18945H24.8291V8.55664ZM26.9277 13V3.04688H29.8672C30.7467 3.04688 31.526 3.24284 32.2051 3.63477C32.8887 4.02669 33.4173 4.58268 33.791 5.30273C34.1647 6.02279 34.3516 6.84766 34.3516 7.77734V8.27637C34.3516 9.21973 34.1624 10.0492 33.7842 10.7646C33.4105 11.4801 32.875 12.0316 32.1777 12.4189C31.485 12.8063 30.6898 13 29.792 13H26.9277ZM28.6572 4.44141V11.6191H29.7852C30.6921 11.6191 31.387 11.3366 31.8701 10.7715C32.3577 10.2018 32.6061 9.38607 32.6152 8.32422V7.77051C32.6152 6.69043 32.3805 5.86556 31.9111 5.2959C31.4417 4.72624 30.7604 4.44141 29.8672 4.44141H28.6572ZM37.8994 13H36.1768V3.04688H37.8994V13ZM47.0117 4.44141H43.9082V13H42.1924V4.44141H39.1162V3.04688H47.0117V4.44141Z" fill="#02435D"/>
<path d="M10.111 12.8337H2.16656V4.88921H6.94045L7.66267 4.16699H2.16656C1.97501 4.16699 1.79131 4.24308 1.65587 4.37853C1.52043 4.51397 1.44434 4.69767 1.44434 4.88921V12.8337C1.44434 13.0252 1.52043 13.2089 1.65587 13.3443C1.79131 13.4798 1.97501 13.5559 2.16656 13.5559H10.111C10.3025 13.5559 10.4862 13.4798 10.6217 13.3443C10.7571 13.2089 10.8332 13.0252 10.8332 12.8337V7.41699L10.111 8.13921V12.8337Z" fill="#02435D"/>
<path d="M12.1076 4.1085L10.8907 2.89155C10.8367 2.8374 10.7725 2.79443 10.7019 2.76511C10.6313 2.73579 10.5555 2.7207 10.479 2.7207C10.4026 2.7207 10.3268 2.73579 10.2562 2.76511C10.1855 2.79443 10.1214 2.8374 10.0674 2.89155L5.11654 7.87127L4.7157 9.60822C4.69863 9.69241 4.70042 9.77935 4.72096 9.86277C4.7415 9.94619 4.78027 10.024 4.83448 10.0907C4.88869 10.1573 4.957 10.2111 5.0345 10.2482C5.11199 10.2853 5.19674 10.3047 5.28265 10.3052C5.32705 10.3101 5.37186 10.3101 5.41626 10.3052L7.16765 9.91877L12.1076 4.93183C12.1618 4.87782 12.2048 4.81366 12.2341 4.74302C12.2634 4.67238 12.2785 4.59665 12.2785 4.52016C12.2785 4.44368 12.2634 4.36795 12.2341 4.29731C12.2048 4.22667 12.1618 4.1625 12.1076 4.1085ZM6.79209 9.25072L5.47042 9.54322L5.77737 8.23239L9.50404 4.48044L10.5224 5.49877L6.79209 9.25072ZM10.9304 5.09072L9.91209 4.07238L10.4718 3.50183L11.4974 4.52738L10.9304 5.09072Z" fill="#02435D"/>
</svg>
