<svg width="9" height="10" viewBox="0 0 9 10" fill="none" xmlns="http://www.w3.org/2000/svg">
<path d="M8.75 0.95007C8.7499 0.704366 8.67852 0.468282 8.55087 0.291437C8.42322 0.114592 8.24924 0.010756 8.06549 0.00175399V0H0.748576V0.00263105C0.735888 0.00175406 0.723309 0 0.710512 0C0.563474 0.000128113 0.420083 0.0611721 0.300087 0.174725C0.180091 0.288278 0.0893931 0.448753 0.0404843 0.63405C-0.00842442 0.819346 -0.0131379 1.02035 0.0269933 1.20937C0.0671244 1.3984 0.150126 1.56615 0.264566 1.68952L3.5613 6.09477L3.56119 8.81329V8.8358H3.56283C3.5656 8.91963 3.58423 9.00115 3.61701 9.07273C3.64978 9.14431 3.69561 9.20361 3.7502 9.24506L3.74922 9.2474L4.61026 9.91172C4.61748 9.91844 4.62547 9.92326 4.63302 9.92926L4.63608 9.93159V9.93145C4.69099 9.97384 4.75399 10 4.82203 10C4.8711 10 4.91969 9.98712 4.96503 9.96203C5.01037 9.93695 5.05157 9.90017 5.08626 9.8538C5.12096 9.80743 5.14849 9.75238 5.16726 9.6918C5.18603 9.63121 5.19569 9.56628 5.19567 9.5007C5.19567 9.48755 5.19348 9.47512 5.19283 9.46226H5.19567V6.09887L8.52271 1.65312L8.51943 1.64874C8.59208 1.56009 8.65011 1.45217 8.68981 1.33187C8.72951 1.21158 8.75001 1.08154 8.75 0.95007ZM2.43315 1.90014H2.43468L2.43479 1.90233L2.43315 1.90014Z" fill="#02435D"/>
</svg>
