<svg width="16" height="16" viewBox="0 0 16 16" fill="none" xmlns="http://www.w3.org/2000/svg">
<path d="M16 16H15.4667C13.2745 15.9999 11.1558 15.2096 9.49917 13.7739L8.93827 13.2878C8.62643 13.3181 8.31331 13.3333 8 13.3333C5.88243 13.3333 3.88717 12.6523 2.38173 11.4157C0.845833 10.1541 0 8.4675 0 6.66667C0 4.86583 0.845833 3.17923 2.38173 1.91763C3.88717 0.681033 5.88243 0 8 0C10.1176 0 12.1128 0.681033 13.6183 1.91763C15.1542 3.17923 16 4.86583 16 6.66667C15.9992 7.62394 15.7576 8.56564 15.2974 9.40503C14.898 10.1361 14.366 10.7865 13.7286 11.3229C14.2049 12.5341 14.9248 13.6346 15.8438 14.5563L16 14.7124V16ZM9.28187 12.1741L10.1978 12.9679C11.461 14.0626 13.0338 14.7367 14.6978 14.8965C13.7797 13.8703 13.0707 12.6749 12.6105 11.3771L12.464 10.9617L12.771 10.7261C14.1654 9.65593 14.9333 8.2143 14.9333 6.66667C14.9333 3.5788 11.823 1.06667 8 1.06667C4.17697 1.06667 1.06667 3.5788 1.06667 6.66667C1.06667 9.75453 4.17697 12.2667 8 12.2667C8.34986 12.2666 8.69939 12.2453 9.04667 12.2029L9.28187 12.1741Z" fill="white"/>
</svg>
