<svg width="76" height="16" viewBox="0 0 76 16" fill="none" xmlns="http://www.w3.org/2000/svg">
<path d="M31.0811 3.04688V9.69824C31.0811 10.7555 30.7415 11.5941 30.0625 12.2139C29.388 12.8291 28.488 13.1367 27.3623 13.1367C26.223 13.1367 25.3184 12.8337 24.6484 12.2275C23.9785 11.6169 23.6436 10.7715 23.6436 9.69141V3.04688H25.3662V9.70508C25.3662 10.3704 25.5348 10.8786 25.8721 11.2295C26.2093 11.5804 26.7061 11.7559 27.3623 11.7559C28.693 11.7559 29.3584 11.054 29.3584 9.65039V3.04688H31.0811ZM34.6631 9.30176V13H32.9336V3.04688H36.7412C37.8532 3.04688 38.735 3.33626 39.3867 3.91504C40.043 4.49382 40.3711 5.25944 40.3711 6.21191C40.3711 7.18717 40.0498 7.94596 39.4072 8.48828C38.7692 9.0306 37.8737 9.30176 36.7207 9.30176H34.6631ZM34.6631 7.91406H36.7412C37.3564 7.91406 37.8258 7.77051 38.1494 7.4834C38.473 7.19173 38.6348 6.77246 38.6348 6.22559C38.6348 5.68783 38.4707 5.25944 38.1426 4.94043C37.8145 4.61686 37.3633 4.45052 36.7891 4.44141H34.6631V7.91406ZM43.6182 11.6191H48.1367V13H41.8887V3.04688H43.6182V11.6191ZM56.9688 8.2832C56.9688 9.25846 56.8001 10.1152 56.4629 10.8535C56.1257 11.5872 55.6426 12.1523 55.0137 12.5488C54.3893 12.9408 53.6693 13.1367 52.8535 13.1367C52.0469 13.1367 51.3268 12.9408 50.6934 12.5488C50.0645 12.1523 49.5768 11.5895 49.2305 10.8604C48.8887 10.1312 48.7155 9.29036 48.7109 8.33789V7.77734C48.7109 6.80664 48.8818 5.94987 49.2236 5.20703C49.57 4.46419 50.0553 3.89681 50.6797 3.50488C51.3086 3.1084 52.0286 2.91016 52.8398 2.91016C53.651 2.91016 54.3688 3.10612 54.9932 3.49805C55.6221 3.88542 56.1074 4.44596 56.4492 5.17969C56.791 5.90885 56.9642 6.75879 56.9688 7.72949V8.2832ZM55.2393 7.76367C55.2393 6.66081 55.0296 5.81543 54.6104 5.22754C54.1956 4.63965 53.6055 4.3457 52.8398 4.3457C52.0924 4.3457 51.5068 4.63965 51.083 5.22754C50.6637 5.81087 50.4495 6.63802 50.4404 7.70898V8.2832C50.4404 9.37695 50.6523 10.2223 51.0762 10.8193C51.5046 11.4163 52.097 11.7148 52.8535 11.7148C53.6191 11.7148 54.207 11.4232 54.6172 10.8398C55.0319 10.2565 55.2393 9.4043 55.2393 8.2832V7.76367ZM64.1123 10.6826H60.2568L59.4502 13H57.6523L61.4121 3.04688H62.9639L66.7305 13H64.9258L64.1123 10.6826ZM60.7422 9.28809H63.627L62.1846 5.15918L60.7422 9.28809ZM67.8652 13V3.04688H70.8047C71.6842 3.04688 72.4635 3.24284 73.1426 3.63477C73.8262 4.02669 74.3548 4.58268 74.7285 5.30273C75.1022 6.02279 75.2891 6.84766 75.2891 7.77734V8.27637C75.2891 9.21973 75.0999 10.0492 74.7217 10.7646C74.348 11.4801 73.8125 12.0316 73.1152 12.4189C72.4225 12.8063 71.6273 13 70.7295 13H67.8652ZM69.5947 4.44141V11.6191H70.7227C71.6296 11.6191 72.3245 11.3366 72.8076 10.7715C73.2952 10.2018 73.5436 9.38607 73.5527 8.32422V7.77051C73.5527 6.69043 73.318 5.86556 72.8486 5.2959C72.3792 4.72624 71.6979 4.44141 70.8047 4.44141H69.5947Z" fill="#02435D"/>
<path d="M8.11273 7.33899C8.09937 7.32192 8.08229 7.30811 8.0628 7.29861C8.04331 7.28912 8.02191 7.28418 8.00023 7.28418C7.97855 7.28418 7.95715 7.28912 7.93766 7.29861C7.91817 7.30811 7.90109 7.32192 7.88773 7.33899L5.88773 9.86935C5.87124 9.8904 5.86101 9.91567 5.85821 9.94227C5.8554 9.96886 5.86014 9.99571 5.87188 10.0197C5.88361 10.0438 5.90187 10.064 5.92457 10.0782C5.94727 10.0923 5.97349 10.0998 6.00023 10.0997H7.31987V14.4283C7.31987 14.5069 7.38416 14.5711 7.46273 14.5711H8.53416C8.61273 14.5711 8.67701 14.5069 8.67701 14.4283V10.1015H10.0002C10.1199 10.1015 10.1859 9.96399 10.1127 9.87114L8.11273 7.33899Z" fill="#02435D"/>
<path d="M13.3464 5.69107C12.5286 3.53393 10.4446 2 8.00357 2C5.5625 2 3.47857 3.53214 2.66071 5.68929C1.13036 6.09107 0 7.48571 0 9.14286C0 11.1161 1.59821 12.7143 3.56964 12.7143H4.28571C4.36429 12.7143 4.42857 12.65 4.42857 12.5714V11.5C4.42857 11.4214 4.36429 11.3571 4.28571 11.3571H3.56964C2.96786 11.3571 2.40179 11.1179 1.98036 10.6839C1.56071 10.2518 1.3375 9.66964 1.35714 9.06607C1.37321 8.59464 1.53393 8.15179 1.825 7.77857C2.12321 7.39821 2.54107 7.12143 3.00536 6.99821L3.68214 6.82143L3.93036 6.16786C4.08393 5.76071 4.29821 5.38036 4.56786 5.03571C4.83406 4.69412 5.14938 4.39384 5.50357 4.14464C6.2375 3.62857 7.10179 3.35536 8.00357 3.35536C8.90536 3.35536 9.76964 3.62857 10.5036 4.14464C10.8589 4.39464 11.1732 4.69464 11.4393 5.03571C11.7089 5.38036 11.9232 5.7625 12.0768 6.16786L12.3232 6.81964L12.9982 6.99821C13.9661 7.25893 14.6429 8.13929 14.6429 9.14286C14.6429 9.73393 14.4125 10.2911 13.9946 10.7089C13.7897 10.915 13.5459 11.0785 13.2774 11.1897C13.0089 11.301 12.721 11.3579 12.4304 11.3571H11.7143C11.6357 11.3571 11.5714 11.4214 11.5714 11.5V12.5714C11.5714 12.65 11.6357 12.7143 11.7143 12.7143H12.4304C14.4018 12.7143 16 11.1161 16 9.14286C16 7.4875 14.8732 6.09464 13.3464 5.69107Z" fill="#02435D"/>
</svg>
