<svg width="16" height="16" viewBox="0 0 16 16" fill="none" xmlns="http://www.w3.org/2000/svg">
<path fill-rule="evenodd" clip-rule="evenodd" d="M6.5 11.9999C7.22227 11.9999 7.93747 11.8576 8.60476 11.5812C9.27205 11.3048 9.87837 10.8997 10.3891 10.389C10.8998 9.87825 11.3049 9.27194 11.5813 8.60466C11.8577 7.93737 12 7.22218 12 6.49992C12 5.77766 11.8577 5.06247 11.5813 4.39519C11.3049 3.72791 10.8998 3.1216 10.3891 2.61088C9.87837 2.10017 9.27205 1.69504 8.60476 1.41865C7.93747 1.14225 7.22227 0.999988 6.5 0.999988C5.04131 0.999988 3.64236 1.57944 2.61091 2.61088C1.57946 3.64232 1 5.04125 1 6.49992C1 7.9586 1.57946 9.35753 2.61091 10.389C3.64236 11.4204 5.04131 11.9999 6.5 11.9999ZM13 6.49992C13 8.22381 12.3152 9.87709 11.0962 11.0961C9.87721 12.315 8.22391 12.9998 6.5 12.9998C4.77609 12.9998 3.12279 12.315 1.90381 11.0961C0.684819 9.87709 0 8.22381 0 6.49992C0 4.77604 0.684819 3.12276 1.90381 1.90378C3.12279 0.684811 4.77609 0 6.5 0C8.22391 0 9.87721 0.684811 11.0962 1.90378C12.3152 3.12276 13 4.77604 13 6.49992Z" fill="white"/>
<path d="M10.344 11.7418C10.374 11.7818 10.406 11.8198 10.442 11.8568L14.292 15.7067C14.4795 15.8944 14.7339 15.9998 14.9991 15.9999C15.2644 16 15.5189 15.8947 15.7065 15.7072C15.8941 15.5197 15.9996 15.2653 15.9997 15.0001C15.9998 14.7348 15.8945 14.4804 15.707 14.2927L11.857 10.4428C11.8212 10.4066 11.7828 10.3732 11.742 10.3428C11.3497 10.8776 10.8783 11.3497 10.344 11.7428V11.7418Z" fill="white"/>
<path fill-rule="evenodd" clip-rule="evenodd" d="M6.5 3C6.63261 3 6.75979 3.05268 6.85355 3.14644C6.94732 3.24021 7 3.36739 7 3.49999V5.99996H9.5C9.63261 5.99996 9.75979 6.05264 9.85355 6.14641C9.94732 6.24017 10 6.36735 10 6.49995C10 6.63256 9.94732 6.75974 9.85355 6.8535C9.75979 6.94727 9.63261 6.99995 9.5 6.99995H7V9.49992C7 9.63252 6.94732 9.7597 6.85355 9.85346C6.75979 9.94723 6.63261 9.99991 6.5 9.99991C6.36739 9.99991 6.24021 9.94723 6.14645 9.85346C6.05268 9.7597 6 9.63252 6 9.49992V6.99995H3.5C3.36739 6.99995 3.24021 6.94727 3.14645 6.8535C3.05268 6.75974 3 6.63256 3 6.49995C3 6.36735 3.05268 6.24017 3.14645 6.14641C3.24021 6.05264 3.36739 5.99996 3.5 5.99996H6V3.49999C6 3.36739 6.05268 3.24021 6.14645 3.14644C6.24021 3.05268 6.36739 3 6.5 3Z" fill="white"/>
</svg>
