<svg width="16" height="16" viewBox="0 0 16 16" fill="none" xmlns="http://www.w3.org/2000/svg">
<path fill-rule="evenodd" clip-rule="evenodd" d="M6.5 11.9998C7.22227 11.9998 7.93747 11.8576 8.60476 11.5812C9.27205 11.3048 9.87837 10.8997 10.3891 10.389C10.8998 9.87824 11.3049 9.27193 11.5813 8.60465C11.8577 7.93737 12 7.22218 12 6.49992C12 5.77766 11.8577 5.06247 11.5813 4.39518C11.3049 3.7279 10.8998 3.12159 10.3891 2.61088C9.87837 2.10016 9.27205 1.69504 8.60476 1.41864C7.93747 1.14225 7.22227 0.999987 6.5 0.999987C5.04131 0.999987 3.64236 1.57944 2.61091 2.61088C1.57946 3.64232 1 5.04124 1 6.49992C1 7.95859 1.57946 9.35752 2.61091 10.389C3.64236 11.4204 5.04131 11.9998 6.5 11.9998ZM13 6.49992C13 8.2238 12.3152 9.87708 11.0962 11.0961C9.87721 12.315 8.22391 12.9998 6.5 12.9998C4.77609 12.9998 3.12279 12.315 1.90381 11.0961C0.684819 9.87708 0 8.2238 0 6.49992C0 4.77603 0.684819 3.12275 1.90381 1.90378C3.12279 0.684811 4.77609 0 6.5 0C8.22391 0 9.87721 0.684811 11.0962 1.90378C12.3152 3.12275 13 4.77603 13 6.49992Z" fill="white"/>
<path d="M10.344 11.7418C10.374 11.7818 10.406 11.8198 10.442 11.8568L14.292 15.7067C14.4795 15.8943 14.7339 15.9998 14.9991 15.9999C15.2644 16 15.5189 15.8947 15.7065 15.7072C15.8941 15.5197 15.9996 15.2653 15.9997 15.0001C15.9998 14.7348 15.8945 14.4804 15.707 14.2927L11.857 10.4428C11.8212 10.4066 11.7828 10.3732 11.742 10.3428C11.3497 10.8776 10.8783 11.3497 10.344 11.7428V11.7418Z" fill="white"/>
<path fill-rule="evenodd" clip-rule="evenodd" d="M3 6.49999C3 6.36738 3.05268 6.24021 3.14645 6.14644C3.24021 6.05268 3.36739 6 3.5 6H9.5C9.63261 6 9.75979 6.05268 9.85355 6.14644C9.94732 6.24021 10 6.36738 10 6.49999C10 6.6326 9.94732 6.75977 9.85355 6.85354C9.75979 6.9473 9.63261 6.99998 9.5 6.99998H3.5C3.36739 6.99998 3.24021 6.9473 3.14645 6.85354C3.05268 6.75977 3 6.6326 3 6.49999Z" fill="white"/>
</svg>
